<?xml version="1.0" encoding="UTF-8"?>
<svg width="700pt" height="700pt" version="1.1" viewBox="0 0 700 700" xmlns="http://www.w3.org/2000/svg">
 <path d="m520.64 83.137h-39.387v-39.387h-26.25v39.387h-210v-39.387h-26.25v39.387h-39.363c-36.191 0-65.637 29.445-65.637 65.637v301.89c0 36.191 29.445 65.637 65.637 65.637h341.25c36.191 0 65.637-29.445 65.637-65.637v-301.91c-0.023438-36.191-29.469-65.613-65.637-65.613zm39.363 367.5c0 21.699-17.664 39.363-39.363 39.363h-341.25c-21.723 0-39.387-17.664-39.387-39.363v-236.25h420zm0-262.5h-420v-39.387c0-21.723 17.664-39.387 39.387-39.387h39.387v26.25h26.227v-26.227h210v26.25h26.25v-26.25h39.387c21.699 0 39.363 17.641 39.363 39.363z"/>
</svg>
