<?xml version="1.0" encoding="UTF-8"?>
<svg width="700pt" height="700pt" version="1.1" viewBox="0 0 700 700" xmlns="http://www.w3.org/2000/svg">
 <g>
  <path d="m560 560h-420c-18.566 0-36.371-7.375-49.496-20.504-13.129-13.125-20.504-30.93-20.504-49.496v-420c0-18.566 7.375-36.371 20.504-49.496 13.125-13.129 30.93-20.504 49.496-20.504h420c18.566 0 36.371 7.375 49.496 20.504 13.129 13.125 20.504 30.93 20.504 49.496v420c0 18.566-7.375 36.371-20.504 49.496-13.125 13.129-30.93 20.504-49.496 20.504zm-420-513.33c-6.1875 0-12.125 2.457-16.5 6.832s-6.832 10.312-6.832 16.5v420c0 6.1875 2.457 12.125 6.832 16.5s10.312 6.832 16.5 6.832h420c6.1875 0 12.125-2.457 16.5-6.832s6.832-10.312 6.832-16.5v-420c0-6.1875-2.457-12.125-6.832-16.5s-10.312-6.832-16.5-6.832z"/>
  <path d="m350 350c-6.1875 0-12.121-2.4609-16.496-6.8359l-93.332-93.332v-0.003906c-4.5039-4.3477-7.0703-10.32-7.125-16.578s2.4102-12.277 6.832-16.703c4.4258-4.4258 10.445-6.8867 16.703-6.832 6.2578 0.054687 12.234 2.6211 16.582 7.1211l93.332 93.332v0.003906c4.375 4.375 6.832 10.309 6.832 16.496s-2.457 12.121-6.832 16.496-10.309 6.8359-16.496 6.8359z"/>
  <path d="m350 350c-6.1875 0-12.121-2.4609-16.496-6.8359s-6.832-10.309-6.832-16.496 2.457-12.121 6.832-16.496l93.332-93.332v-0.003906c5.9258-5.7227 14.434-7.8984 22.379-5.7188 7.9492 2.1797 14.156 8.3867 16.336 16.332 2.1758 7.9492 0.003907 16.453-5.7227 22.379l-93.332 93.332v0.003906c-4.375 4.375-10.309 6.8359-16.496 6.8359z"/>
 </g>
</svg>
