<?xml version="1.0" encoding="UTF-8"?>
<svg width="700pt" height="700pt" version="1.1" viewBox="0 0 700 700" xmlns="http://www.w3.org/2000/svg" xmlns:xlink="http://www.w3.org/1999/xlink">
 <defs>
  <symbol id="m" overflow="visible">
   <path d="m36.078-2.1562c-1.8672 0.96875-3.8086 1.6992-5.8281 2.1875-2.0117 0.48828-4.1094 0.73438-6.2969 0.73438-6.543 0-11.727-1.8281-15.547-5.4844-3.8125-3.6562-5.7188-8.6133-5.7188-14.875 0-6.2695 1.9062-11.234 5.7188-14.891 3.8203-3.6562 9.0039-5.4844 15.547-5.4844 2.1875 0 4.2852 0.25 6.2969 0.75 2.0195 0.49219 3.9609 1.2148 5.8281 2.1719v8.125c-1.875-1.2812-3.7266-2.2188-5.5469-2.8125-1.8242-0.59375-3.7461-0.89062-5.7656-0.89062-3.6172 0-6.4609 1.1562-8.5312 3.4688-2.0625 2.3125-3.0938 5.5-3.0938 9.5625 0 4.0547 1.0312 7.2344 3.0938 9.5469 2.0703 2.3125 4.9141 3.4688 8.5312 3.4688 2.0195 0 3.9414-0.29688 5.7656-0.89062 1.8203-0.59375 3.6719-1.5312 5.5469-2.8125z"/>
  </symbol>
  <symbol id="b" overflow="visible">
   <path d="m26.391-21.422c-0.82422-0.38281-1.6406-0.67188-2.4531-0.85938s-1.6328-0.28125-2.4531-0.28125c-2.4297 0-4.293 0.77734-5.5938 2.3281-1.3047 1.5547-1.9531 3.7773-1.9531 6.6719v13.562h-9.4219v-29.453h9.4219v4.8438c1.207-1.9258 2.5938-3.332 4.1562-4.2188 1.5703-0.88281 3.4531-1.3281 5.6406-1.3281 0.32031 0 0.66406 0.015625 1.0312 0.046875 0.36328 0.023437 0.89844 0.074219 1.6094 0.15625z"/>
  </symbol>
  <symbol id="a" overflow="visible">
   <path d="m33.922-14.797v2.6719h-22.016c0.22656 2.2109 1.0234 3.8672 2.3906 4.9688 1.375 1.1055 3.2852 1.6562 5.7344 1.6562 1.9766 0 4.0039-0.28906 6.0781-0.875 2.082-0.58203 4.2188-1.4727 6.4062-2.6719v7.2656c-2.2188 0.83594-4.4453 1.4648-6.6719 1.8906-2.2305 0.4375-4.4531 0.65625-6.6719 0.65625-5.3359 0-9.4805-1.3516-12.438-4.0625-2.9492-2.707-4.4219-6.5078-4.4219-11.406 0-4.8008 1.4453-8.5781 4.3438-11.328 2.9062-2.75 6.8984-4.125 11.984-4.125 4.625 0 8.3281 1.3984 11.109 4.1875 2.7812 2.7812 4.1719 6.5078 4.1719 11.172zm-9.6875-3.1406c0-1.7812-0.52344-3.2188-1.5625-4.3125-1.043-1.0938-2.4023-1.6406-4.0781-1.6406-1.8242 0-3.3086 0.51172-4.4531 1.5312-1.1367 1.0234-1.8438 2.4961-2.125 4.4219z"/>
  </symbol>
  <symbol id="h" overflow="visible">
   <path d="m17.719-13.25c-1.9609 0-3.4375 0.33594-4.4375 1-0.99219 0.66797-1.4844 1.6484-1.4844 2.9375 0 1.1992 0.39844 2.1367 1.2031 2.8125 0.80078 0.66797 1.9102 1 3.3281 1 1.7695 0 3.2578-0.63281 4.4688-1.9062 1.207-1.2695 1.8125-2.8594 1.8125-4.7656v-1.0781zm14.375-3.5469v16.797h-9.4844v-4.3594c-1.2617 1.7812-2.6836 3.0859-4.2656 3.9062-1.5742 0.8125-3.4922 1.2188-5.75 1.2188-3.0547 0-5.5312-0.89062-7.4375-2.6719-1.8984-1.7812-2.8438-4.0859-2.8438-6.9219 0-3.457 1.1875-5.9883 3.5625-7.5938 2.375-1.6133 6.1016-2.4219 11.188-2.4219h5.5469v-0.75c0-1.4883-0.58984-2.5781-1.7656-3.2656-1.168-0.6875-2.9961-1.0312-5.4844-1.0312-2.0234 0-3.9023 0.20312-5.6406 0.60938-1.7305 0.39844-3.3398 0.99609-4.8281 1.7969v-7.1719c2.0078-0.48828 4.0312-0.85938 6.0625-1.1094 2.0391-0.25781 4.0781-0.39062 6.1094-0.39062 5.3125 0 9.1445 1.0469 11.5 3.1406 2.3516 2.0938 3.5312 5.5 3.5312 10.219z"/>
  </symbol>
  <symbol id="g" overflow="visible">
   <path d="m14.797-37.812v8.3594h9.7031v6.7344h-9.7031v12.484c0 1.375 0.26953 2.3047 0.8125 2.7812 0.55078 0.48047 1.6289 0.71875 3.2344 0.71875h4.8438v6.7344h-8.0781c-3.7109 0-6.3398-0.77344-7.8906-2.3281-1.5547-1.5508-2.3281-4.1875-2.3281-7.9062v-12.484h-4.6875v-6.7344h4.6875v-8.3594z"/>
  </symbol>
  <symbol id="f" overflow="visible">
   <path d="m24.562-25.141v-15.766h9.4531v40.906h-9.4531v-4.2656c-1.3047 1.7422-2.7344 3.0156-4.2969 3.8281-1.5547 0.80078-3.3555 1.2031-5.4062 1.2031-3.6367 0-6.6211-1.4414-8.9531-4.3281-2.3242-2.8828-3.4844-6.5977-3.4844-11.141 0-4.5312 1.1602-8.2383 3.4844-11.125 2.332-2.8828 5.3164-4.3281 8.9531-4.3281 2.0312 0 3.8281 0.41406 5.3906 1.2344 1.5703 0.8125 3.0078 2.0742 4.3125 3.7812zm-6.2188 19.062c2.0195 0 3.5625-0.73438 4.625-2.2031s1.5938-3.6094 1.5938-6.4219c0-2.8008-0.53125-4.9375-1.5938-6.4062s-2.6055-2.2031-4.625-2.2031c-1.9922 0-3.5156 0.73438-4.5781 2.2031s-1.5938 3.6055-1.5938 6.4062c0 2.8125 0.53125 4.9531 1.5938 6.4219s2.5859 2.2031 4.5781 2.2031z"/>
  </symbol>
  <symbol id="e" overflow="visible">
   <path d="m20.188-6.0781c2.0195 0 3.5547-0.73438 4.6094-2.2031 1.0625-1.4688 1.5938-3.6094 1.5938-6.4219 0-2.8008-0.53125-4.9375-1.5938-6.4062-1.0547-1.4688-2.5898-2.2031-4.6094-2.2031-2.0117 0-3.5586 0.74219-4.6406 2.2188-1.0742 1.4805-1.6094 3.6094-1.6094 6.3906 0 2.793 0.53516 4.9297 1.6094 6.4062 1.082 1.4805 2.6289 2.2188 4.6406 2.2188zm-6.25-19.062c1.2891-1.707 2.7227-2.9688 4.2969-3.7812 1.582-0.82031 3.3984-1.2344 5.4531-1.2344 3.625 0 6.6016 1.4453 8.9375 4.3281 2.332 2.8867 3.5 6.5938 3.5 11.125 0 4.543-1.168 8.2578-3.5 11.141-2.3359 2.8867-5.3125 4.3281-8.9375 4.3281-2.0547 0-3.8711-0.40625-5.4531-1.2188-1.5742-0.82031-3.0078-2.0938-4.2969-3.8125v4.2656h-9.4219v-40.906h9.4219z"/>
  </symbol>
  <symbol id="d" overflow="visible">
   <path d="m0.65625-29.453h9.4062l7.9219 19.984 6.7344-19.984h9.4062l-12.375 32.234c-1.25 3.2812-2.7031 5.5703-4.3594 6.875-1.6562 1.3125-3.8438 1.9688-6.5625 1.9688h-5.4375v-6.1875h2.9375c1.6016 0 2.7656-0.25781 3.4844-0.76562 0.72656-0.5 1.2969-1.4062 1.7031-2.7188l0.26562-0.82812z"/>
  </symbol>
  <symbol id="c" overflow="visible">
   <path d="m4.5156-29.453h9.4219v29.453h-9.4219zm0-11.453h9.4219v7.6719h-9.4219z"/>
  </symbol>
  <symbol id="l" overflow="visible">
   <path d="m0.8125-29.453h9.4219l7.3281 20.359 7.3125-20.359h9.4375l-11.594 29.453h-10.328z"/>
  </symbol>
  <symbol id="k" overflow="visible">
   <path d="m28.312-28.531v7.6875c-1.2812-0.875-2.5703-1.5195-3.8594-1.9375-1.2812-0.42578-2.6172-0.64062-4-0.64062-2.625 0-4.6719 0.76562-6.1406 2.2969-1.4609 1.5312-2.1875 3.6719-2.1875 6.4219 0 2.7617 0.72656 4.9062 2.1875 6.4375 1.4688 1.5312 3.5156 2.2969 6.1406 2.2969 1.4688 0 2.8633-0.21875 4.1875-0.65625 1.3203-0.4375 2.5469-1.0859 3.6719-1.9531v7.7031c-1.4688 0.55469-2.9648 0.96094-4.4844 1.2344-1.5117 0.26953-3.0312 0.40625-4.5625 0.40625-5.3047 0-9.4531-1.3594-12.453-4.0781-3-2.7266-4.5-6.5234-4.5-11.391 0-4.8516 1.5-8.6406 4.5-11.359 3-2.7266 7.1484-4.0938 12.453-4.0938 1.5391 0 3.0625 0.13672 4.5625 0.40625 1.5 0.27344 2.9922 0.67969 4.4844 1.2188z"/>
  </symbol>
  <symbol id="j" overflow="visible">
   <path d="m18.531-23.422c-2.0859 0-3.6719 0.75-4.7656 2.25s-1.6406 3.6562-1.6406 6.4688c0 2.8242 0.54688 4.9844 1.6406 6.4844s2.6797 2.25 4.7656 2.25c2.0508 0 3.6172-0.75 4.7031-2.25 1.0938-1.5 1.6406-3.6602 1.6406-6.4844 0-2.8125-0.54688-4.9688-1.6406-6.4688-1.0859-1.5-2.6523-2.25-4.7031-2.25zm0-6.7344c5.0703 0 9.0312 1.3711 11.875 4.1094 2.8438 2.7305 4.2656 6.5117 4.2656 11.344 0 4.8438-1.4219 8.6367-4.2656 11.375-2.8438 2.7305-6.8047 4.0938-11.875 4.0938-5.0859 0-9.0586-1.3633-11.922-4.0938-2.8672-2.7383-4.2969-6.5312-4.2969-11.375 0-4.832 1.4297-8.6133 4.2969-11.344 2.8633-2.7383 6.8359-4.1094 11.922-4.1094z"/>
  </symbol>
  <symbol id="i" overflow="visible">
   <path d="m34.125-17.938v17.938h-9.4688v-13.719c0-2.5391-0.058594-4.2891-0.17188-5.25-0.11719-0.96875-0.3125-1.6797-0.59375-2.1406-0.36719-0.61328-0.86719-1.0938-1.5-1.4375-0.625-0.34375-1.3398-0.51562-2.1406-0.51562-1.9688 0-3.5156 0.76172-4.6406 2.2812-1.1172 1.5117-1.6719 3.6094-1.6719 6.2969v14.484h-9.4219v-29.453h9.4219v4.3125c1.4141-1.707 2.9219-2.9688 4.5156-3.7812 1.5938-0.82031 3.3516-1.2344 5.2812-1.2344 3.4062 0 5.9883 1.0469 7.75 3.1406 1.7578 2.0859 2.6406 5.1094 2.6406 9.0781z"/>
  </symbol>
 </defs>
 <g>
  <path d="m337.35 549.11c-65.719 0-131.43-25.008-181.47-75.059-99.945-99.953-99.945-262.59 0-362.54 17.23-17.238 36.855-31.949 58.328-43.73 4.1953-2.3047 9.4062-1.5469 12.793 1.8281 3.3867 3.3867 4.1289 8.6016 1.8242 12.801-49.891 90.875-33.5 205.58 39.855 278.95 73.434 73.43 188.12 89.867 278.94 39.965 4.1758-2.3242 9.4023-1.5781 12.777 1.7969 3.3906 3.375 4.1523 8.5703 1.8711 12.777-11.535 21.234-26.215 40.836-43.633 58.254-49.969 49.965-115.63 74.953-181.28 74.953zm-143.05-442.7c-8.1602 6.2578-15.91 13.051-23.191 20.328-91.551 91.559-91.551 240.52 0 332.08 91.637 91.633 240.71 91.695 332.29 0.10547 7.2969-7.2969 14.066-15.008 20.277-23.086-92.422 34-199.07 11.906-270.23-59.25-71.074-71.082-93.16-177.72-59.148-270.18z"/>
  <path d="m550.54 148.31c-5.9492 0-10.77-4.8164-10.77-10.77 0-26.07-21.207-47.285-47.273-47.285-5.9492 0-10.77-4.8164-10.77-10.77s4.8203-10.77 10.77-10.77c12.59 0 24.504-4.9336 33.562-13.895 8.8086-8.9062 13.707-20.762 13.707-33.273 0-5.9531 4.8203-10.77 10.77-10.77s10.77 4.8164 10.77 10.77c0 12.629 4.9102 24.453 13.824 33.273 8.8984 8.9805 20.719 13.895 33.348 13.895 5.9492 0 10.77 4.8164 10.77 10.77s-4.8203 10.77-10.77 10.77c-12.516 0-24.355 4.9023-33.355 13.797-8.8828 8.9805-13.82 20.898-13.82 33.484 0.007813 5.957-4.8164 10.773-10.762 10.773zm-21.082-68.801c8.4492 5.4062 15.656 12.609 21.055 21.066 2.668-4.1953 5.8047-8.1289 9.3867-11.746 3.5977-3.5664 7.5-6.6797 11.641-9.3281-4.1641-2.6836-8.0664-5.8359-11.637-9.4336-3.5703-3.543-6.7031-7.4141-9.3711-11.559-2.6328 4.1133-5.7227 7.9805-9.2461 11.547-3.6445 3.6172-7.6172 6.7695-11.828 9.4531z"/>
  <path d="m468.48 327.18c-5.9492 0-10.77-4.8164-10.77-10.77 0-26.008-21.207-47.168-47.277-47.168-5.9492 0-10.77-4.8164-10.77-10.77s4.8203-10.77 10.77-10.77c12.613 0 24.52-4.9648 33.516-13.965 8.875-8.875 13.762-20.664 13.762-33.203 0-5.9531 4.8203-10.77 10.77-10.77 5.9492 0 10.77 4.8164 10.77 10.77 0 12.672 4.918 24.43 13.852 33.086 8.9648 9.1484 20.73 14.082 33.316 14.082 5.9492 0 10.77 4.8164 10.77 10.77s-4.8203 10.77-10.77 10.77c-12.535 0-24.332 4.8906-33.203 13.758-9.0195 8.9297-13.965 20.781-13.965 33.41 0 5.9531-4.8203 10.77-10.77 10.77zm-21.098-68.707c8.4648 5.3945 15.676 12.598 21.086 21.043 2.707-4.2188 5.8984-8.1719 9.5547-11.789 3.543-3.543 7.4141-6.6484 11.543-9.2969-4.1797-2.7031-8.0859-5.8984-11.656-9.5508-3.5898-3.4688-6.7461-7.3203-9.4219-11.441-2.6484 4.1211-5.7578 7.9805-9.3008 11.527-3.6328 3.6289-7.5859 6.8047-11.805 9.5078z"/>
  <path d="m322.23 224.02c-5.9492 0-10.77-4.8164-10.77-10.77 0-26.02-21.207-47.18-47.277-47.18-5.9492 0-10.77-4.8164-10.77-10.77s4.8203-10.77 10.77-10.77c12.527 0 24.441-4.9727 33.559-13.996 8.7031-8.707 13.719-20.855 13.719-33.273 0-5.9531 4.8203-10.77 10.77-10.77s10.77 4.8164 10.77 10.77c0 12.727 4.8945 24.523 13.781 33.223 9.0039 9.1094 20.816 14.051 33.387 14.051 5.9492 0 10.77 4.8164 10.77 10.77 0 5.9531-4.8203 10.77-10.77 10.77-12.605 0-24.438 4.8906-33.309 13.758-8.9375 8.9375-13.859 20.812-13.859 33.422 0 5.9492-4.8242 10.766-10.77 10.766zm-21.133-68.738c8.4727 5.3945 15.688 12.59 21.102 21.043 2.6758-4.1953 5.832-8.1172 9.4297-11.727 3.5742-3.5664 7.4727-6.6992 11.633-9.3594-4.1758-2.6914-8.0859-5.8594-11.668-9.4844-3.5703-3.5039-6.7031-7.3398-9.3711-11.473-2.6445 4.1133-5.7461 7.9805-9.2852 11.516-3.6602 3.6172-7.6289 6.793-11.84 9.4844z"/>
 </g>
</svg>
