<?xml version="1.0" encoding="UTF-8"?>
<svg width="700pt" height="700pt" version="1.1" viewBox="0 0 400 900" xmlns="http://www.w3.org/2000/svg" xmlns:xlink="http://www.w3.org/1999/xlink">
 <g>
  <path fill="#ffffff" d="m197.09 378.32c13.594 4.5312 6.7969 24.918-6.7969 20.387l-95.145-33.98c-13.594-4.5312-6.7969-24.918 9.0625-20.387z"/>
  <path fill="#ffffff" d="m246.93 312.62c9.0625 11.328-6.7969 27.184-18.121 15.859l-65.695-72.492c-11.328-11.328 6.7969-27.184 15.859-15.859l67.961 72.492z"/>
  <path fill="#ffffff" d="m319.42 280.91c4.5312 13.594-18.121 18.121-20.387 4.5312l-24.918-97.41c-4.5312-13.594 18.121-18.121 20.387-4.5312z"/>
  <path fill="#ffffff" d="m400.97 285.44c-4.5312 13.594-24.918 9.0625-22.652-6.7969l24.918-95.145c2.2656-15.859 24.918-9.0625 20.387 4.5312z"/>
  <path fill="#ffffff" d="m468.93 328.48c-9.0625 11.328-24.918-4.5312-15.859-15.859l65.695-74.758c11.328-11.328 27.184 4.5312 18.121 15.859l-67.961 74.758z"/>
  <path fill="#ffffff" d="m509.71 398.71c-13.594 4.5312-20.387-18.121-6.7969-22.652l92.879-33.98c13.594-4.5312 22.652 15.859 9.0625 20.387z"/>
  <path fill="#ffffff" d="m11.328 455.34c-15.859 0-15.859-22.652 0-22.652h188.03c11.328-72.492 74.758-129.12 151.78-129.12 74.758 0 138.19 56.633 149.52 129.12h188.03c15.859 0 15.859 22.652 0 22.652zm210.68-22.652h255.99c-11.328-58.898-63.43-106.47-126.86-106.47-63.43 0-117.8 47.574-129.12 106.47z"/>
 </g>
</svg>
