<?xml version="1.0" encoding="UTF-8"?>
<svg width="700pt" height="700pt" version="1.1" viewBox="0 0 700 700" xmlns="http://www.w3.org/2000/svg">
 <g>
  <path d="m245 402.5c-4.4766 0-8.957-1.7109-12.375-5.1289-6.8359-6.8359-6.8359-17.91 0-24.746l210-210c6.8359-6.8359 17.91-6.8359 24.746 0 6.8359 6.8359 6.8359 17.91 0 24.746l-210 210c-3.4141 3.4219-7.8945 5.1289-12.371 5.1289z"/>
  <path d="m455 402.5c-4.4766 0-8.957-1.7109-12.375-5.1289l-210-210c-6.8359-6.8359-6.8359-17.91 0-24.746s17.91-6.8359 24.746 0l210 210c6.8359 6.8359 6.8359 17.91 0 24.746-3.4141 3.4219-7.8945 5.1289-12.371 5.1289z"/>
 </g>
</svg>
